<?xml version="1.0" encoding="UTF-8"?>
<svg version="1.1" xmlns="http://www.w3.org/2000/svg" width="134" height="170">
<path d="M0 0 C44.22 0 88.44 0 134 0 C134 56.1 134 112.2 134 170 C89.78 170 45.56 170 0 170 C0 113.9 0 57.8 0 0 Z " fill="#171717" transform="translate(0,0)"/>
<path d="M0 0 C2.54002705 1.20257918 5.01700326 2.44077269 7.5 3.75 C14.50615216 7.35187873 21.60136121 10.28651506 29 13 C30.75253975 13.70202601 32.50272847 14.40996273 34.25 15.125 C38.77189719 16.94858477 43.35566462 18.51919742 48 20 C51.08015423 33.48201173 50.28989756 50.56481624 47 64 C46.84934082 64.63099609 46.69868164 65.26199219 46.54345703 65.91210938 C41.66829968 85.78739065 32.00309242 106.87491009 14.13623047 118.17919922 C12.09650214 119.38563897 10.03274547 120.51800872 7.9375 121.625 C7.28910156 121.98037842 6.64070313 122.33575684 5.97265625 122.7019043 C0.75966388 125.28026812 -3.38157101 125.42809967 -9 124 C-12.1232788 122.90304027 -15.08160668 121.56014967 -18.0625 120.125 C-19.57315706 119.41700107 -21.08487041 118.71125138 -22.59765625 118.0078125 C-23.32355957 117.66911133 -24.04946289 117.33041016 -24.79736328 116.98144531 C-28.14296367 115.49072113 -31.55550927 114.24330085 -35 113 C-31.81805802 110.87870535 -28.90166968 109.81208753 -25.3125 108.5 C-7.42313699 101.57233159 9.02463083 89.63539507 19 73 C19 72.34 19 71.68 19 71 C18.2884375 71.73605469 17.576875 72.47210938 16.84375 73.23046875 C5.88362881 83.90454282 -7.92386438 92.18005931 -22 98 C-22.81984375 98.36222656 -23.6396875 98.72445312 -24.484375 99.09765625 C-29.00391245 100.71879468 -33.28796404 100.85967186 -38 100 C-41.39500266 98.06680816 -44.11134454 95.60874699 -47 93 C-48.17011355 92.18285458 -49.35541852 91.38647663 -50.5625 90.625 C-51.366875 90.08875 -52.17125 89.5525 -53 89 C-53 88.67 -53 88.34 -53 88 C-52.3915625 87.9484375 -51.783125 87.896875 -51.15625 87.84375 C-41.7333005 86.62430948 -34.22438815 82.46723806 -26 78 C-25.31147949 77.63422852 -24.62295898 77.26845703 -23.91357422 76.89160156 C-14.65767929 71.97052533 -6.20526164 66.56878686 2 60 C2.93457031 59.28070313 3.86914062 58.56140625 4.83203125 57.8203125 C13.29992373 51.16443058 21.46432147 43.9290655 26 34 C25.25878906 34.65484375 24.51757812 35.3096875 23.75390625 35.984375 C9.16779035 48.70210924 -6.35957173 58.84348577 -23.54736328 67.73144531 C-25.05846854 68.51302036 -26.56560848 69.30238865 -28.06591797 70.10449219 C-34.39888558 73.48903484 -40.31424837 76.17941433 -47.625 75.796875 C-51.50776374 74.49410559 -52.87309417 71.7862336 -54.68359375 68.26171875 C-56.13816561 65.76261755 -57.68709887 64.67452077 -60 63 C-60 62.34 -60 61.68 -60 61 C-59.0203125 60.9071875 -58.040625 60.814375 -57.03125 60.71875 C-52.50999504 60.06507458 -48.63340902 58.38751827 -44.5 56.5 C-43.71463867 56.14397705 -42.92927734 55.7879541 -42.12011719 55.42114258 C-28.79481781 49.24439522 -11.31444518 40.55949642 -3 28 C-3.85078125 28.54527344 -4.7015625 29.09054688 -5.578125 29.65234375 C-13.00896368 34.31368624 -20.56642304 38.38465831 -28.5625 42 C-29.40651367 42.38534912 -30.25052734 42.77069824 -31.12011719 43.16772461 C-36.96697427 45.75446288 -42.26145563 47.11542315 -48.6875 47.25 C-49.80705078 47.28867188 -49.80705078 47.28867188 -50.94921875 47.328125 C-53 47 -53 47 -54.75 45.89453125 C-57.66039737 41.48346024 -56.24902555 35.06171491 -56 30 C-56.02320313 29.03191406 -56.04640625 28.06382813 -56.0703125 27.06640625 C-55.9167864 24.09974019 -55.63285219 22.49784754 -54 20 C-49.9018249 17.55759766 -45.66334601 16.10566599 -41.12744141 14.67675781 C-37.73381792 13.59721635 -34.3996982 12.36633535 -31.0625 11.125 C-30.40991211 10.88595947 -29.75732422 10.64691895 -29.08496094 10.40063477 C-21.43415295 7.53111366 -14.23300399 3.77883874 -7 0 C-4.20477588 -1.39761206 -3.01087377 -0.84370639 0 0 Z " fill="#AEAFAF" transform="translate(75,21)"/>
<path d="M0 0 C0 3 0 3 -1.53125 4.60546875 C-2.1809375 5.12753906 -2.830625 5.64960937 -3.5 6.1875 C-4.1496875 6.71730469 -4.799375 7.24710938 -5.46875 7.79296875 C-5.9740625 8.19128906 -6.479375 8.58960938 -7 9 C-7 8.34 -7 7.68 -7 7 C-7.66 6.67 -8.32 6.34 -9 6 C-6.03 4.02 -3.06 2.04 0 0 Z " fill="#393939" transform="translate(73,47)"/>
<path d="M0 0 C0 0.66 0 1.32 0 2 C-0.99 2 -1.98 2 -3 2 C-2.67 2.99 -2.34 3.98 -2 5 C-3.98 4.34 -5.96 3.68 -8 3 C-3.5 0 -3.5 0 0 0 Z " fill="#939494" transform="translate(48,131)"/>
<path d="M0 0 C0.33 0.66 0.66 1.32 1 2 C-0.32 3.65 -1.64 5.3 -3 7 C-4.32 6.67 -5.64 6.34 -7 6 C-4.69 4.02 -2.38 2.04 0 0 Z " fill="#2E2F2F" transform="translate(101,54)"/>
</svg>
